<?xml version="1.0" standalone="no"?>
<!DOCTYPE svg PUBLIC "-//W3C//DTD SVG 20010904//EN"
 "http://www.w3.org/TR/2001/REC-SVG-20010904/DTD/svg10.dtd">
<svg version="1.0" xmlns="http://www.w3.org/2000/svg"
 width="512.000000pt" height="512.000000pt" viewBox="0 0 512.000000 512.000000"
 preserveAspectRatio="xMidYMid meet">
<metadata>
Created by potrace 1.14, written by Peter Selinger 2001-2017
</metadata>
<g transform="translate(0.000000,512.000000) scale(0.100000,-0.100000)"
fill="#000000" stroke="none">
<path d="M2140 5113 c-317 -52 -556 -325 -565 -643 -8 -323 217 -609 531 -673
63 -13 28 -14 -416 -14 -560 -1 -583 -2 -734 -57 -281 -103 -501 -361 -561
-661 -13 -64 -13 -254 0 -321 46 -233 175 -434 366 -566 122 -85 279 -144 393
-147 45 -1 27 -8 -42 -15 -353 -37 -641 -225 -806 -527 -32 -59 -80 -178 -93
-234 -37 -155 -36 -338 2 -490 99 -395 434 -698 835 -754 37 -6 684 -10 1515
-10 1574 0 1517 -2 1689 55 281 94 512 320 620 607 55 146 74 357 47 519 -34
202 -137 396 -290 548 -58 58 -162 140 -176 140 -3 0 -22 10 -43 23 -87 54
-251 107 -372 121 -25 3 -200 6 -390 6 -327 2 -341 3 -268 16 174 31 323 109
453 237 125 124 204 265 245 440 24 105 22 298 -5 402 -66 257 -245 472 -487
584 -84 40 -189 71 -235 71 -15 0 -24 3 -20 6 3 3 72 7 154 9 205 4 310 38
439 141 158 126 243 295 258 509 4 48 -20 185 -42 247 -72 204 -253 364 -468
417 -74 18 -120 19 -794 19 -393 -1 -726 -3 -740 -5z"/>
</g>
</svg>
